<svg version="1.2" xmlns="http://www.w3.org/2000/svg" viewBox="0 0 729 822" width="729" height="822"><defs><filter x="-50%" y="-50%" width="200%" height="200%" id="f1" ><feDropShadow dx="0" dy="0" stdDeviation="9.583333333333334" flood-color="#066b96" flood-opacity=".2"/></filter><linearGradient id="P" gradientUnits="userSpaceOnUse"/><linearGradient id="g1" x1="900.6" y1="-1928.4" x2="84.2" y2="-2014.2" href="#P"><stop stop-color="#09f"/><stop offset="1" stop-color="#00cbff"/></linearGradient></defs><style>.a{filter:url(#f1);fill:url(#g1)}</style><path class="a" d="m352 24.8c4.1 0.1 11.8 0.7 17 1.3 5.2 0.6 13.8 1.9 19 3 5.2 1 14.9 3.6 21.5 5.7 6.6 2.2 15.8 5.7 20.5 7.9 4.7 2.1 13.9 7.4 20.5 11.8 8.4 5.5 15.5 11.3 23.8 19.4 6.5 6.4 13.9 14.3 16.3 17.6 2.5 3.3 6.1 8.7 8.1 12 1.9 3.3 5.5 9.8 7.8 14.5 2.3 4.7 5.8 12.3 7.8 17 1.9 4.7 5.3 14.3 7.6 21.5 2.3 7.1 6 20 8.2 28.5 2.2 8.5 5 19.5 6 24.5 1.1 4.9 2.7 13 3.5 18 0.8 4.9 1.8 12.8 2.3 17.5 0.6 4.7 1.2 14.6 1.6 22 0.3 7.4 0.8 18.7 1.1 25 0.3 6.3 1.4 17.3 2.4 24.5 1 7.1 3.2 18.5 4.9 25.2 1.7 6.8 5.2 17.6 7.7 24 2.5 6.5 7.4 17.2 10.8 23.8 3.4 6.6 8.9 16 12.1 21 3.3 4.9 9.8 14.2 14.6 20.5 4.8 6.3 14 17.6 20.6 25 6.5 7.4 16.3 18.2 21.8 24 5.5 5.9 14.1 15.3 19.2 21.1 5.1 5.7 13.2 15.6 18 22 4.8 6.4 11.3 16.5 14.5 22.5 3.1 6 7 15.3 8.7 20.6 1.7 5.4 3.5 12.8 4.1 16.5 0.5 3.8 1 10.8 1 15.8 0 4.9-0.7 13-1.6 18-0.9 4.9-2.9 13.3-4.6 18.5-1.7 5.2-4.5 12.6-6.3 16.5-1.7 3.8-5.1 10.1-7.5 14-2.3 3.8-7.5 11.2-11.4 16.4-3.9 5.2-11.6 14.2-17.2 20-5.6 5.8-15.9 15.4-23 21.3-7.1 5.9-16.5 13.2-20.9 16.4-4.4 3.2-13.9 9.3-21 13.6-7.2 4.4-18.2 10.5-24.5 13.8-6.3 3.2-16 7.6-21.5 9.8-5.5 2.2-15 5.6-21 7.5-6.1 1.9-14.6 4.4-19 5.5-4.4 1.1-13.4 2.9-20 4.1-6.6 1.1-15.8 2.4-20.5 2.8-4.7 0.4-18.6 0.8-31 0.7-15.1-0.1-26.4-0.7-34.5-1.8-6.6-0.9-16.7-2.6-22.5-3.7-5.8-1.1-15-3.2-20.5-4.6-5.5-1.3-16.5-4.5-24.5-7-8-2.5-21.3-7.2-29.5-10.5-8.3-3.2-19.5-8.1-25-10.8-5.5-2.6-14.5-7.4-20-10.5-5.5-3.2-15.4-9.4-22-13.9-6.6-4.4-16.5-11.7-22-16.1-5.5-4.4-15.6-13.2-22.5-19.6-6.9-6.4-19.8-19.4-28.7-29-8.8-9.6-17.8-19.5-20-22.1-2.1-2.5-6.5-7.7-9.8-11.6-3.3-3.8-9.6-11.6-14-17.3-4.4-5.7-11.3-15.3-15.4-21.4-4.1-6-10.4-15.7-14.1-21.5-3.6-5.8-8.9-14.6-11.7-19.5-2.8-5-7.3-13.3-10-18.5-2.7-5.2-7.7-15.8-11-23.5-3.4-7.7-8.2-19.6-10.6-26.5-2.5-6.9-6.1-18.1-8.1-25-2-6.9-4.9-19-6.5-27-1.6-8-3.4-18.8-4.1-24-0.6-5.2-1.4-14-1.8-19.5-0.4-5.5-0.7-15.6-0.6-22.5 0.1-6.9 0.5-16.6 0.9-21.5 0.3-5 1.3-13.5 2-19 0.8-5.5 2.7-16.1 4.4-23.5 1.6-7.4 5.4-20.9 8.4-30 3-9.1 7.8-21.9 10.6-28.5 2.9-6.6 7.8-17 11-23 3.2-6.1 8.4-15.3 11.6-20.5 3.1-5.2 8.7-13.8 12.3-19 3.6-5.2 9-12.7 12-16.5 2.9-3.9 9-11.5 13.6-17 4.6-5.5 12.3-14.5 17.1-20 4.8-5.5 12.2-13.6 16.4-18.1 4.2-4.4 11.6-11.8 16.6-16.4 4.9-4.6 12.6-11.3 17-14.9 4.4-3.6 9.6-7.7 11.5-9.1 1.9-1.3 7.5-5.1 12.5-8.4 4.9-3.3 15.3-9.2 23-13.1 8.4-4.3 20.2-9.2 29.5-12.2 8.5-2.9 20.7-6.4 27-7.8 6.3-1.5 16.2-3.3 22-4.2 5.8-0.8 17.2-1.8 25.5-2.1 8.2-0.4 18.4-0.6 22.5-0.4z"/></svg>