<svg version="1.2" xmlns="http://www.w3.org/2000/svg" viewBox="0 0 1015 1039" width="1015" height="1039"><defs><filter x="-50%" y="-50%" width="200%" height="200%" id="f1" ><feDropShadow dx="0" dy="0" stdDeviation="37.5" flood-color="#066b96" flood-opacity=".1"/></filter></defs><style>.a{filter:url(#f1);fill:#fff}</style><path class="a" d="m432.5 91.6c1.6 0.2 7 0.7 12 1.3 4.9 0.5 13.5 1.9 19 3 5.5 1.2 14 3.3 19 4.8 4.9 1.4 13.9 4.7 20 7.3 6 2.6 14.4 6.8 18.5 9.3 4.1 2.6 9.2 5.6 11.2 6.7 2.1 1.1 6.6 4.1 10 6.7 3.5 2.6 10.9 9.5 16.5 15.3 5.5 5.8 12.7 13.6 16 17.5 3.2 3.8 8.8 11.3 12.4 16.5 3.7 5.2 9.6 14.4 13.2 20.5 3.6 6 8.1 13.9 10.1 17.5 2 3.6 8.3 15.9 14.1 27.5 5.7 11.5 13.3 28.6 16.8 38 3.6 9.3 8.8 25.5 11.6 36 2.9 10.4 7.5 26 10.2 34.5 2.8 8.5 6.4 18.6 8.1 22.5 1.6 3.8 5.7 12.4 9 19 3.3 6.6 9.3 16.9 13.2 23 4 6 11.7 16.6 17.3 23.5 5.5 6.9 14.9 17.2 21 23 6 5.8 13.8 13 17.4 16.1 3.5 3.1 11.3 9.4 17.4 14 6 4.7 14.1 10.7 18 13.4 3.8 2.6 16 10.9 27 18.3 11 7.4 24.5 16.7 30 20.6 5.5 3.9 14.3 10.4 19.5 14.5 5.2 4.1 14.9 12.9 21.6 19.5 6.6 6.7 14.4 15.2 17.3 19.1 2.8 3.8 7.6 11.9 10.7 18 3.8 7.6 6.4 14.7 8.5 23 1.6 6.6 3.4 16.3 3.9 21.5 0.6 5.2 0.8 13.5 0.5 18.5-0.4 4.9-1.1 11.9-1.6 15.5-0.6 3.6-2.1 10.8-3.4 16-1.2 5.2-4 14-6 19.5-2.1 5.5-6 14.7-8.7 20.5-2.7 5.8-6.5 13.2-8.5 16.5-2 3.3-5.4 8.9-7.6 12.5-2.3 3.6-8.1 11.9-13.1 18.5-4.9 6.6-12.1 15.8-16 20.5-3.9 4.6-13.9 15.2-22.2 23.5-8.2 8.2-20.4 19.5-27 25-6.5 5.5-16.4 13.3-21.9 17.2-5.5 3.9-14.3 9.7-19.5 12.9-5.2 3.1-13.8 7.9-19 10.5-5.2 2.6-12.2 5.9-15.5 7.4-3.3 1.5-10.5 4.4-16 6.5-5.5 2.1-15.2 5.4-21.5 7.4-6.3 2-18.5 5.2-27 7-8.5 1.9-20.5 4.1-26.5 5-6.1 0.8-15.1 2-20 2.5-5 0.6-19.4 1.1-32 1.1-12.7 0-29.8-0.4-38-1-8.3-0.5-16.4-1.2-18-1.5-1.7-0.3-8.4-1.2-15-2-6.6-0.9-18.5-3-26.5-4.6-8-1.7-21.3-5-29.5-7.4-8.3-2.4-20-6.2-26-8.4-6.1-2.2-15.7-6-21.5-8.4-5.8-2.4-16.1-7.2-23-10.7-6.9-3.4-19.3-10.3-27.5-15.3-8.3-4.9-20.9-12.9-28-17.6-7.2-4.7-18-12.1-24-16.5-6.1-4.4-13.9-9.9-17.5-12.4-3.6-2.5-11.2-8.3-17-13.1-5.8-4.7-13.4-11-17-14-3.6-2.9-14.8-13.3-24.9-23-10.2-9.7-23.4-23-29.5-29.6-6.1-6.6-14.3-15.9-18.2-20.5-3.8-4.7-10.6-13.2-15.1-19-4.4-5.8-11.3-15.5-15.4-21.5-4.1-6.1-10.1-15.5-13.3-21-3.3-5.5-8.8-15.4-12.2-22-3.5-6.6-7.9-15.8-10-20.5-2-4.7-5.6-13.7-8-20-2.5-6.3-6.2-17.4-8.4-24.5-2.1-7.2-5-18-6.4-24-1.3-6.1-3.1-14.8-4-19.5-0.8-4.7-1.9-12.6-2.5-17.5-0.5-5-1.3-11.9-1.6-15.5-0.4-3.6-0.6-15.5-0.6-26.5 0-11 0.7-26.5 1.5-34.5 0.9-8 2.3-18.6 3.1-23.5 0.9-5 2.3-12.4 3.1-16.5 0.8-4.1 2.7-12 4.1-17.5 1.4-5.5 3.6-13.6 4.9-18 1.4-4.4 4.5-13.9 7.1-21 2.5-7.2 6.8-18.4 9.5-25 2.7-6.6 10.2-22.4 16.5-35 6.3-12.7 14.5-28.4 18-35 3.6-6.6 7.7-14 9.2-16.4 1.4-2.3 6.6-10.4 11.6-18 4.9-7.5 11.4-16.8 14.4-20.6 3-3.9 9.2-11.3 13.7-16.5 4.5-5.2 11.5-12.7 15.6-16.6 4-3.9 10.9-10.2 15.3-14 4.4-3.8 11.8-9.7 16.5-13 4.7-3.4 12.5-8.6 17.5-11.7 4.9-3 14.2-8 20.5-11.2 6.3-3.2 16.2-7.7 22-10 5.8-2.4 15.2-6 21-8 5.8-2 17.5-5.4 26-7.5 8.5-2.2 21.1-4.7 28-5.5 6.9-0.9 18.3-2 25.5-2.4 7.1-0.4 14.3-0.6 16-0.5z"/></svg>