<svg version="1.2" xmlns="http://www.w3.org/2000/svg" viewBox="0 0 1316 1160" width="1316" height="1160"><defs><filter x="-50%" y="-50%" width="200%" height="200%" id="f1" ><feDropShadow dx="0" dy="0" stdDeviation="9.583333333333334" flood-color="#066b96" flood-opacity=".2"/></filter><linearGradient id="P" gradientUnits="userSpaceOnUse"/><linearGradient id="g1" x1="1656.2" y1="-2766.9" x2="135.9" y2="-2926.7" href="#P"><stop stop-color="#09f"/><stop offset="1" stop-color="#00cbff"/></linearGradient></defs><style>.a{filter:url(#f1);fill:url(#g1)}</style><path class="a" d="m804 24.4c4.7 0.2 16.4 0.9 26 1.5 9.6 0.6 20 1.3 23 1.6 3 0.3 9.5 1.1 14.5 1.6 4.9 0.6 15.5 2.1 23.5 3.5 8 1.3 16.5 2.9 19 3.4 2.5 0.5 12.4 2.8 22 5.1 9.6 2.2 22.4 5.4 28.5 7.1 6 1.7 19.5 6.1 30 9.8 10.4 3.7 24.4 9.1 31 12 6.6 2.9 16.3 7.4 21.5 10 5.2 2.6 14 7.3 19.5 10.5 5.5 3.1 15.6 9.4 22.5 13.9 6.9 4.5 17.4 12 23.5 16.6 6 4.6 15.5 12.3 21 17.1 5.5 4.8 14.7 13.4 20.5 19.1 5.8 5.6 14 14.1 18.1 18.8 4.1 4.7 11.4 13.2 16 19 4.7 5.8 12.6 16.3 17.6 23.5 4.9 7.1 10.8 15.9 13 19.5 2.2 3.6 6.7 11.2 10 17 3.3 5.8 8.2 14.8 10.8 20 2.6 5.2 7 14.7 9.7 21 2.7 6.3 6.5 15.5 8.5 20.5 1.9 4.9 5.7 15.5 8.4 23.5 2.7 8 6.3 19.2 7.9 25 1.7 5.8 4.6 17.5 6.6 26 1.9 8.5 4.2 18.9 5 23 0.8 4.1 2.6 15.4 4 25 1.4 9.6 3.2 24.9 3.9 34 0.8 9.1 1.7 25 2.1 35.5 0.4 11.4 0.2 27.8-0.5 41-0.7 12.1-1.9 27.8-2.7 35-0.8 7.1-2.6 20.2-4 29-1.4 8.8-3.1 19.1-3.9 23-0.8 3.8-2.5 11.5-3.9 17-1.3 5.5-3.5 14.3-4.9 19.5-1.4 5.2-5 16.7-8 25.5-2.9 8.8-7.5 21.4-10.2 28-2.6 6.6-7.4 17.8-10.7 25-3.2 7.1-9.3 19.3-13.5 27-4.2 7.7-10.3 18.5-13.7 24-3.3 5.5-9.3 14.9-13.4 21-4.1 6-12.6 17.7-18.8 26-6.2 8.2-15.8 20.4-21.5 27-5.6 6.6-21.3 23-34.8 36.5-13.5 13.5-28.7 28-33.6 32.1-5 4.1-15.8 12.9-24 19.6-8.3 6.6-21.3 16.5-29 21.9-7.7 5.5-19.2 13.4-25.5 17.5-6.3 4.2-18.9 12-28 17.4-9.1 5.4-23.7 13.6-32.5 18.3-8.8 4.7-23.2 12-32 16.3-8.8 4.2-23.9 11-33.5 15.2-9.6 4.1-24 9.9-32 13-8 3-22.6 8.3-32.5 11.7-9.9 3.3-28.1 8.9-40.5 12.4-12.4 3.5-25 6.9-28 7.6-3 0.7-10.2 2.3-16 3.7-5.8 1.3-18.2 3.8-27.5 5.4-9.4 1.7-21.7 3.7-27.5 4.5-5.8 0.7-21.3 2.4-34.5 3.5-13.2 1.2-33 2.4-44 2.6-11.1 0.3-27.1 0-36-0.6-8.8-0.6-24.8-2.1-35.5-3.2-10.7-1.1-25.4-2.9-32.5-3.9-7.2-1.1-21.1-3.5-31-5.5-9.9-2-25.7-5.6-35-8-9.4-2.3-25.8-7.1-36.5-10.5-10.7-3.5-25.6-8.5-33-11.2-7.4-2.7-19.1-7.4-26-10.3-6.9-2.9-19-8.4-27-12.2-8-3.7-20.1-9.8-27-13.4-6.9-3.7-19-10.6-27-15.4-8-4.8-20.8-13-28.5-18.3-7.7-5.3-19.2-13.6-25.5-18.5-6.3-5-16.2-13.2-22-18.2-5.8-5.1-16.8-15.7-24.5-23.6-7.7-7.9-18.5-20-24.1-26.9-5.5-6.9-14.8-19.3-20.6-27.5-5.8-8.3-15-22.2-20.3-31-5.4-8.8-12.8-21.9-16.6-29-3.7-7.2-9.6-19.3-12.9-27-3.4-7.7-8.1-19-10.5-25-2.3-6.1-5.9-15.5-7.8-21-2-5.5-5.2-15.2-7-21.5-1.9-6.3-4.2-14.4-5-18-0.9-3.6-2.3-9.4-3.1-13-0.8-3.6-2.2-11-3-16.5-0.9-5.5-2.1-14.1-2.6-19-0.6-5-1.1-17.1-1.1-27 0-9.9 0.8-23.9 1.6-31 0.9-7.2 2.8-18.9 4.4-26 1.6-7.2 5.1-19.8 7.9-28 2.8-8.3 7.3-20.2 10.2-26.5 2.8-6.3 7.9-16.5 11.5-22.5 3.5-6.1 9.6-15.7 13.7-21.5 4-5.8 10.7-14.8 14.9-20 4.2-5.2 13.5-15.5 20.5-22.9 7.1-7.4 17.6-17.5 23.4-22.6 5.8-5 13.6-11.6 17.5-14.6 3.8-3 10.8-8.2 15.5-11.5 4.7-3.3 13.4-9.1 19.5-12.9 6-3.8 15.7-9.1 21.5-11.8 5.8-2.7 14.3-6.4 19-8.2 4.7-1.8 12.1-4.4 16.5-5.8 4.4-1.4 11.6-3.4 16-4.5 4.4-1.2 11.6-2.8 16-3.7 4.4-0.9 15-2.6 23.5-3.7 14-1.9 21.1-2.1 72.5-2.3 38.9-0.1 59.4-0.6 64.5-1.4 4.1-0.6 10.9-2.3 15-3.7 4.1-1.4 10-4 13-5.9 3-1.8 8-5.9 11-9.2 3-3.2 7.2-9.2 9.3-13.3 2-4.1 4.4-10.7 5.2-14.5 0.8-3.9 1.5-9.9 1.5-13.5 0-3.6-0.6-10.3-1.5-15-0.8-4.7-3.7-17.3-6.4-28-2.7-10.7-5.7-25.1-6.6-32-1.2-8.8-1.6-15.3-1.1-22 0.4-5.2 1.6-13.3 2.7-18 1.1-4.7 3.8-13 5.9-18.5 2.2-5.5 5.6-12.7 7.5-16 2-3.3 6.2-9.4 9.3-13.5 3-4.1 8.5-10.6 12.1-14.4 3.6-3.8 11.3-11 17.1-15.9 5.8-5 14.8-11.8 20-15.2 5.2-3.3 14-8.6 19.5-11.7 5.5-3.1 15.8-8.3 23-11.6 7.1-3.2 20.6-8.6 30-12 9.3-3.3 25.3-8.3 35.5-11 10.2-2.7 20.8-5.5 23.5-6.1 2.7-0.6 12.6-2.5 22-4.2 9.3-1.6 29.1-4.1 44-5.5 14.8-1.3 31-2.4 36-2.5 4.9 0 9.9-0.4 11-0.9 1.1-0.5 5.8-0.8 10.5-0.6z"/></svg>