<?xml version="1.0" encoding="utf-8"?>
<!-- Generator: Adobe Illustrator 23.0.0, SVG Export Plug-In . SVG Version: 6.00 Build 0)  -->
<svg version="1.1"
	 id="svg2" xmlns:cc="http://creativecommons.org/ns#" xmlns:dc="http://purl.org/dc/elements/1.1/" xmlns:rdf="http://www.w3.org/1999/02/22-rdf-syntax-ns#" xmlns:svg="http://www.w3.org/2000/svg"
	 xmlns="http://www.w3.org/2000/svg" xmlns:xlink="http://www.w3.org/1999/xlink" x="0px" y="0px" viewBox="0 0 672 96"
	 style="enable-background:new 0 0 672 96;" xml:space="preserve">
<style type="text/css">
	.st0{clip-path:url(#SVGID_2_);}
	.st1{fill:#3EC2F1;}
	.st2{fill:#1A1A1A;}
</style>
<g id="g12">
	<g>
		<defs>
			<rect id="SVGID_1_" y="0" width="672" height="96"/>
		</defs>
		<clipPath id="SVGID_2_">
			<use xlink:href="#SVGID_1_"  style="overflow:visible;"/>
		</clipPath>
		<g id="g14" class="st0">
			<g id="g20" transform="translate(224.1946,69.6579)">
				<path id="path22" class="st1" d="M74.7-66.5h8.3V7.9c0,4.3,3.6,7.9,7.9,7.9h34.8v7.6H89.7c-8.3,0-14.9-6.8-14.9-14.9v-73.6
					V-66.5z"/>
			</g>
			<g id="g24" transform="translate(312.059,35.884)">
				<path id="path26" class="st1" d="M104,12.3c0-23.7-11.5-37.7-27.6-37.7c-16,0-27.6,13.9-27.6,37.7c0,23.7,11.5,37.8,27.6,37.8
					C92.5,50.1,104,36,104,12.3 M40.8,12.3C40.8-15.2,55.7-33,76.4-33c20.7,0,35.6,18,35.6,45.3S97.1,57.6,76.4,57.6
					C55.7,57.6,40.8,39.7,40.8,12.3"/>
			</g>
			<g id="g28" transform="translate(371.0306,14.2143)">
				<path id="path30" class="st1" d="M123.7,62.8c-3.6,8.6-14.7,16.5-27.7,16.5c-22.1,0-34.8-19.5-34.8-45.7c0-27.5,14.8-45,35.4-45
					c16,0,26.4,9.3,30.8,26.7l-7.8,1.9c-4-14.4-10.5-21-23.1-21c-14.7,0-27.2,12.4-27.2,36.9c0,24.4,11.1,38.5,27.3,38.5
					c14.2,0,23.6-10.2,23.4-28H99.5v-7.2h28.3C128,51,125.7,57.9,123.7,62.8"/>
			</g>
			<path id="path32" class="st1" d="M510.6,3.1h8.3v90.1h-8.3V3.1z"/>
			<g id="g34" transform="translate(396.875,36.0996)">
				<path id="path36" class="st1" d="M132.3,11.8c0-26.4,14.1-45,35.2-45c17.1,0,26.6,10.5,30.6,26.7l-7.8,2
					c-3.7-13.8-10.1-21-23-21c-16.4,0-27,14.7-27,37.1c0,24.1,10.8,38.4,27.2,38.4c12.6,0,20.4-7.6,24.1-22.1l7.8,1.7
					c-4.2,17.2-15.1,28-32.1,28C146.1,57.5,132.3,39.7,132.3,11.8"/>
			</g>
			<g id="g38" transform="translate(453.6124,22.1735)">
				<path id="path40" class="st1" d="M151.2,44.3l7.2-2.7c3.7,12.2,11,22.4,23,22.4c12.6,0,21-6,21-15.8c0-9.1-4.2-13.7-22.1-19.5
					c-18.3-5.9-27.5-10.9-27.5-25.4c0-12.5,10.9-22.4,26.3-22.4c16,0,25,8.3,29,20.1l-6.9,3.3c-4.2-11.4-11.6-15.8-22.3-15.8
					c-11.4,0-18.3,6.3-18.3,14.2c0,9.8,5.6,13.1,23.4,19c17.7,5.8,26.3,11.8,26.3,26c0,14.5-12.5,23.9-29.5,23.9
					C165,71.4,155.1,58.3,151.2,44.3"/>
			</g>
			<g id="g42" transform="translate(30.5991,17.1735)">
				<g>
					<path id="path44_8_" class="st2" d="M10.2,55.9H-3c-0.9,0-1.6-0.7-1.6-1.6V40.3h14.8c6,0,8,4,8,7.8
						C18.2,51.9,16.2,55.9,10.2,55.9 M-4.6,5.9H9.2c6,0,7.9,3.7,7.9,7.3c0,3.4-1.9,7.3-7.9,7.3H-4.5V5.9H-4.6z M29.2,29.9
						c2.7-1.9,9.8-7.5,9.8-17.7c0-15.5-9.9-25.9-28.5-25.9h-37.1v72.3c0,9.5,7.8,17.2,17.2,17.2h21.7c16,0,27.9-9.3,27.9-26.4
						C40.2,36.8,32.9,32.1,29.2,29.9"/>
				</g>
			</g>
			<g id="g46" transform="translate(90.2176,19.4375)">
				<g>
					<path id="path48_8_" class="st2" d="M30.1,50.6c-1.6,2.2-4.7,4-8.8,4c-4,0-7.2-1.9-8.8-4c-2-2.6-3.3-5.5-3.3-21.8
						s1.3-19.4,3.3-22c1.6-2.2,4.7-3.9,8.8-3.9c4,0,7.2,1.7,8.8,3.9c2,2.6,3.3,5.6,3.3,22S32.1,47.9,30.1,50.6 M46.3-6.7
						c-6.5-6.5-14.1-10.1-25-10.1c-10.9,0-18.5,3.4-25,10.1c-9.5,9.5-9.1,22-9.1,35.5s-0.4,26,9.1,35.5c6.5,6.5,14.1,10.1,25,10.1
						c10.9,0,18.5-3.4,25-10.1c9.5-9.5,9.1-22,9.1-35.5S55.8,2.6,46.3-6.7"/>
				</g>
			</g>
			<g id="g50" transform="translate(148.7579,40.9993)">
				<g>
					<path id="path52_8_" class="st2" d="M49.6,0.3c-2.7-1.1-6-2.3-9.5-3.4c-5-1.7-10.8-3.7-13.5-5.2c-1-0.6-1.9-1.4-2.3-2.9
						c-1.2-3.6,2.4-6.3,7.3-6.3h1.7c4.2,0,8.9,1.1,12.4,2.9c1.7,0.9,3,1.9,3,1.9l14.4-14.4l-0.4-0.4c-4.5-3.7-9.5-6.6-15.1-8.5
						c-4.6-1.3-9.8-2.2-14.2-2.2h-1.7c-16.2,0-28,11.4-28,27c0,9.3,6.8,17.4,12.9,20.8c4.3,2.4,10.6,4.6,16.8,6.8
						c3.2,1.1,6.2,2.2,8.5,3c3.2,1.3,4.6,3.4,4.5,6.3c-0.3,3.7-5,6.3-10.2,6.3h-1.3c-5.8,0-11.4-1.2-16.1-4.2c-2-1.3-3-2-3-2
						L1.3,40.3l0.4,0.4C4,43,7,45.2,10.3,47.1c8.3,4.6,18.5,5.7,25,5.7h1.3h1.7c5.2-0.4,9.3-1.9,13.7-3.9
						c8.8-4.7,14.4-12.9,14.8-21.8v-0.9v-0.4v-0.6C66.5,13.7,60.2,4.6,49.6,0.3"/>
				</g>
			</g>
			<g id="g54" transform="translate(201.3688,40.9993)">
				<g>
					<path id="path56_8_" class="st2" d="M67.1,0.3c-2.7-1.1-6-2.3-9.5-3.4c-5-1.7-10.8-3.7-13.5-5.2c-1-0.6-1.9-1.4-2.3-2.9
						c-1.2-3.6,2.4-6.3,7.3-6.3h1.7c4.2,0,8.9,1.1,12.4,2.9c1.7,0.9,3,1.9,3,1.9l14.4-14.4l-0.4-0.4c-4.5-3.7-9.5-6.6-15.1-8.5
						c-4.6-1.3-9.8-2.2-14.2-2.2h-1.7c-16.2,0-28,11.4-28,27c0,9.3,6.8,17.4,12.9,20.8c4.3,2.4,10.6,4.6,16.8,6.8
						c3.2,1.1,6.2,2.2,8.5,3c3.2,1.3,4.6,3.4,4.5,6.3c-0.3,3.7-5,6.3-10.2,6.3h-1.3c-5.8,0-11.4-1.2-16.1-4.2c-2-1.3-3-2-3-2
						L18.8,40.3l0.4,0.4c2.3,2.3,5.3,4.5,8.6,6.3c8.3,4.6,18.5,5.7,25,5.7h1.3h1.7c5.2-0.4,9.3-1.9,13.7-3.9
						c8.8-4.7,14.4-12.9,14.8-21.8v-0.9v-0.4v-0.6C84.1,13.7,77.8,4.6,67.1,0.3"/>
				</g>
			</g>
		</g>
	</g>
</g>
</svg>
