<svg version="1.2" xmlns="http://www.w3.org/2000/svg" viewBox="0 0 638 649" width="638" height="649"><defs><filter x="-50%" y="-50%" width="200%" height="200%" id="f1" ><feDropShadow dx="0" dy="0" stdDeviation="37.5" flood-color="#066b96" flood-opacity=".1"/></filter></defs><style>.a{filter:url(#f1);fill:#fff}</style><path class="a" d="m383.5 91.1c5.3 0 12.7 0.7 18 1.8 4.9 1.1 12.6 3.1 17 4.6 4.4 1.4 12.5 4.8 18 7.5 5.5 2.7 14 7.5 19 10.6 4.9 3.2 12.1 8.2 16 11.3 3.8 3 10.1 8.2 13.9 11.5 3.8 3.4 10.3 10 14.5 14.7 4.2 4.7 10.6 13 14.2 18.5 3.7 5.4 9.1 14.8 12.1 20.9 3.1 6 7.3 16.4 9.6 23 2.2 6.6 4.9 16.7 6.1 22.5 1.1 5.8 2.6 14.3 3.3 19 0.8 5.1 1.3 17.9 1.3 32 0 14.7-0.5 26.9-1.4 32.5-0.7 4.9-2.2 12.6-3.2 17-1 4.4-3.2 12.3-4.7 17.5-1.6 5.2-4.4 13.1-6.2 17.5-1.7 4.4-7.2 16.2-12.1 26.2-4.9 10.1-12.8 24.7-17.6 32.5-4.8 7.9-12.1 18.8-16.2 24.3-4.1 5.5-9.5 12.5-12 15.5-2.5 3-8.4 9.7-13.1 14.9-4.7 5.2-13.3 13.5-19.1 18.5-5.8 5-14.7 12-19.7 15.6-5.1 3.6-10.4 7.2-12 8-1.5 0.9-5.6 3.2-9.2 5.2-3.6 2-11.2 5.7-17 8.1-5.8 2.5-15.2 5.9-21 7.7-5.8 1.8-14.8 4.1-20 5.1-5.7 1.1-16.5 2.1-27 2.5-10.7 0.4-21.9 0.2-29-0.5-6.3-0.6-16.2-2-22-3.1-5.8-1.2-13.2-2.8-16.5-3.6-3.3-0.9-13.7-4.2-23-7.4-9.4-3.1-21.5-7.6-27-9.9-5.5-2.3-14.3-6.5-19.5-9.3-5.2-2.8-13.6-7.8-18.5-11.1-5.3-3.6-14-11.1-21-18.2-8-7.9-14.3-15.4-18.7-22-3.7-5.5-9.2-15-12.2-21-3-6.1-7.1-15.7-9-21.5-1.9-5.8-4.2-14.6-5.1-19.5-0.9-5-1.6-14.6-1.6-21.5-0.1-8.8 0.5-15.1 1.9-21.5 1.1-5 3.4-12.6 5.2-17 1.7-4.4 5-11.2 7.3-15 2.7-4.6 8.5-11.4 16.7-19.6 6.9-6.9 15.9-15.1 20-18.1 4.1-3 13.1-9.3 20-14 6.9-4.6 17.2-10.7 23-13.5 5.8-2.8 12.5-6 15-7 2.5-1.1 9-4 14.5-6.4 5.5-2.4 14.7-7.5 20.5-11.3 7.3-4.8 14.2-10.7 22.5-19 8-8 14.2-15.5 18.6-22.1 3.6-5.5 8.8-14.1 11.6-19 2.8-5 9.1-17.1 14-27 4.9-9.9 11.6-22.3 14.9-27.5 3.2-5.2 9-12.8 12.9-16.9 3.8-4 9.5-9 12.5-11.1 3-2 8.6-5 12.5-6.5 3.8-1.6 9.7-3.4 13-4.1 3.3-0.7 10-1.2 15-1.3z"/></svg>