<svg version="1.2" xmlns="http://www.w3.org/2000/svg" viewBox="0 0 811 846" width="811" height="846"><defs><filter x="-50%" y="-50%" width="200%" height="200%" id="f1" ><feDropShadow dx="0" dy="0" stdDeviation="37.5" flood-color="#066b96" flood-opacity=".1"/></filter></defs><style>.a{filter:url(#f1);fill:#fff}</style><path class="a" d="m481.5 91.5c12.7 0.2 19.5 0.9 27 2.5 5.5 1.2 15.4 4 22 6.2 6.6 2.3 16.5 6.1 22 8.5 5.5 2.4 14.9 7 21 10.2 6 3.2 16.6 9.6 23.5 14.2 6.9 4.6 17.9 12.7 24.5 18 6.6 5.3 16.1 13.9 21 19 5 5.2 11.1 11.9 13.6 14.9 2.5 3 7.3 9.3 10.6 14 3.4 4.7 8.5 12.3 11.3 17 2.9 4.7 6.9 11.9 9 16 2.1 4.1 5.7 12 8 17.5 2.3 5.5 5.8 14.7 7.7 20.5 1.9 5.8 4.5 14.8 5.9 20 1.4 5.2 3.4 14.2 4.5 20 1.1 5.8 2.9 17 4 25 1.3 9.3 2.2 22 2.4 35.5 0.2 11.5-0.1 25.7-0.5 31.5-0.5 5.8-1.4 13.6-2 17.5-0.7 3.8-2 11.5-3.1 17-1.1 5.5-3.5 15.6-5.4 22.5-1.9 6.9-5.3 17.7-7.5 24-2.3 6.3-7.1 18.9-10.7 28-3.6 9.1-11.5 26.8-17.7 39.5-6.2 12.6-16 30.6-21.8 40-5.8 9.3-14.3 22.2-18.8 28.5-4.5 6.3-11.6 15.8-15.8 21-4.3 5.2-13.8 15.7-21.2 23.3-7.4 7.7-17.6 17.4-22.5 21.6-5 4.3-12.8 10.6-17.5 14.1-4.7 3.6-13.7 9.6-20 13.5-6.3 4-16.5 9.6-22.5 12.7-6.1 3.1-15.3 7.2-20.5 9.3-5.2 2-14.2 5.3-20 7.1-5.8 1.9-15.7 4.6-22 6-6.3 1.4-18.3 3.4-26.5 4.5-10.6 1.4-21.1 2-36 2-11.6 0-25.3-0.5-30.5-1.1-5.2-0.5-16.5-2.2-25-3.6-8.5-1.4-25-5-36.5-7.9-11.6-3-29.1-8.1-39-11.3-9.9-3.3-19.8-6.7-22-7.7-2.2-0.9-7.4-3.2-11.5-5-4.1-1.9-10.7-5.1-14.5-7.3-3.9-2.1-8.6-4.8-10.5-6-1.9-1.2-4.9-2.9-6.5-3.8-1.7-1-7.5-5.1-13-9.2-5.5-4.2-15.4-13-22-19.6-6.6-6.7-15.2-16.4-19.1-21.6-4-5.2-9.9-13.8-13.2-19-3.3-5.2-8.8-15.1-12.2-22-3.5-6.9-7.7-16.6-9.5-21.5-1.8-5-4.7-14.6-6.3-21.5-1.7-7-3.4-16.9-3.7-22.5-0.4-5.5-0.8-11.1-1.1-12.5-0.2-1.4 0.1-7.5 0.6-13.5 0.6-6.1 1.5-13.5 2.1-16.5 0.6-3 2.7-10.5 4.6-16.5 2-6.1 5.5-14.9 7.9-19.8 2.4-4.8 6.7-12 9.6-16 2.8-3.9 7.2-9.7 9.7-12.7 2.5-3 7.9-9 12.1-13.4 4.1-4.3 12.2-11.9 17.9-17 5.8-5 15.7-13.3 22-18.4 6.4-5.2 16.5-12.7 22.6-16.7 6-4.1 21.8-13.2 35-20.2 13.2-7.1 27.4-15.1 31.5-17.9 4.1-2.8 11.5-8.5 16.5-12.6 4.9-4.1 12.2-10.8 16.1-14.9 3.9-4.1 9.8-11 13.2-15.4 3.4-4.4 7-9.1 8-10.5 1.1-1.4 5.3-8.4 9.4-15.5 4.1-7.2 9.5-17.3 12-22.5 2.5-5.2 6.5-14 8.7-19.5 2.3-5.5 6.1-14.5 8.3-20 2.3-5.5 6.6-15.9 9.5-23 3-7.2 8.3-18.4 11.7-25 3.4-6.6 8.2-14.7 10.6-18 2.4-3.3 6.6-8.7 9.5-12 2.8-3.3 8.5-8.5 12.6-11.6 4.1-3.1 10.3-7.2 13.9-9.2 3.6-1.9 10.3-4.7 15-6.2 4.7-1.5 11.6-3.3 15.5-4.1 4.8-0.9 12.4-1.2 24-0.9z"/></svg>