<svg version="1.2" xmlns="http://www.w3.org/2000/svg" viewBox="0 0 1043 921" width="1043" height="921"><defs><filter x="-50%" y="-50%" width="200%" height="200%" id="f1" ><feDropShadow dx="0" dy="0" stdDeviation="9.583333333333334" flood-color="#066b96" flood-opacity=".2"/></filter><linearGradient id="P" gradientUnits="userSpaceOnUse"/><linearGradient id="g1" x1="1305" y1="-2166.8" x2="111.1" y2="-2292.3" href="#P"><stop stop-color="#09f"/><stop offset="1" stop-color="#00cbff"/></linearGradient></defs><style>.a{filter:url(#f1);fill:url(#g1)}</style><path class="a" d="m642.5 24.6c9.3 0.2 22.8 0.8 30 1.4 7.1 0.5 17.5 1.7 23 2.6 5.5 0.8 13.6 2.2 18 3 4.4 0.9 11.8 2.4 16.5 3.5 4.7 1.1 13.7 3.3 20 4.9 6.3 1.6 18.7 5.4 27.5 8.4 8.8 3 21.4 7.7 28 10.5 6.6 2.9 17.6 8.2 24.5 11.8 6.9 3.6 16.1 8.8 20.5 11.6 4.4 2.8 12 8 17 11.5 4.9 3.6 13.7 10.3 19.5 15.1 5.7 4.7 16.3 14.4 23.4 21.6 7.1 7.1 17.6 18.8 23.3 26 5.8 7.1 14.6 19.3 19.7 27 5.1 7.7 11.5 18 14.1 23 2.7 4.9 7 13.3 9.6 18.5 2.6 5.2 7.1 15.6 10.1 23 3.1 7.4 7.6 19.8 10.1 27.5 2.5 7.7 5.9 19.4 7.5 26 1.7 6.6 4.2 17.6 5.6 24.5 1.4 6.9 3.4 18.8 4.5 26.5 1.1 7.7 2.5 20.7 3.2 29 0.8 9.7 1 24.9 0.6 43-0.3 15.4-1.2 33.6-2.1 40.5-0.8 6.9-2.2 17-3.1 22.5-0.8 5.5-2.9 16.1-4.6 23.5-1.6 7.4-4.1 17.3-5.4 22-1.3 4.7-4.5 14.8-7.1 22.5-2.6 7.7-7.4 20.3-10.6 28-3.3 7.7-8.1 18-10.5 23-2.5 4.9-6.8 13-9.6 18-2.8 4.9-7.5 12.8-10.5 17.5-3 4.7-8.7 13-12.5 18.5-3.9 5.5-11.4 15.4-16.8 22-5.3 6.6-15.3 18.1-22.1 25.5-6.8 7.4-18 18.6-24.9 24.9-6.8 6.3-17.8 16-24.4 21.5-6.6 5.5-17.9 14.3-25 19.6-7.2 5.3-20 14.2-28.5 19.7-8.5 5.5-19.3 12.3-24 15-4.7 2.8-16.6 9.4-26.5 14.7-9.9 5.3-26.1 13.2-36 17.5-9.9 4.4-24.5 10.5-32.5 13.6-8 3.2-20.4 7.7-27.5 10.1-7.2 2.5-20.7 6.7-30 9.4-9.4 2.7-22.6 6.3-29.5 7.9-6.9 1.7-21.1 4.6-31.5 6.5-10.5 1.9-24 3.9-30 4.5-6.1 0.6-19.1 1.8-29 2.6-9.9 0.8-22.5 1.5-28 1.5-5.5 0-17.4-0.5-26.5-1-9.1-0.6-22.4-1.7-29.5-2.6-7.2-0.8-19.8-2.6-28-4-8.3-1.3-21.1-3.8-28.5-5.5-7.4-1.6-19.8-4.7-27.5-6.9-7.7-2.1-21.9-6.6-31.5-9.9-9.6-3.3-23.6-8.5-31-11.6-7.4-3.1-21.2-9.4-30.5-14-9.4-4.6-23.3-12.1-31-16.7-7.7-4.6-19.6-12.2-26.4-16.8-6.8-4.7-18.3-13.2-25.5-19-7.2-5.8-19.2-16.6-26.6-24-7.4-7.4-18.5-19.7-24.5-27.3-6.1-7.6-14.1-18.4-17.9-24-3.8-5.6-10.1-15.6-14.1-22.2-4-6.6-9.7-17-12.8-23-3-6.1-8.1-16.9-11.2-24-3.2-7.2-7.7-18.2-10-24.5-2.3-6.3-5.6-16.2-7.3-22-1.7-5.8-4.2-15.1-5.6-20.8-1.4-5.6-3.5-17.2-4.6-25.7-1.1-8.5-2-20.8-2-27.3 0-6.4 0.7-17.8 1.6-25.2 0.8-7.4 3-19.4 4.9-26.5 1.8-7.2 5-17.5 7-23 2.1-5.5 5.2-13.2 7-17 1.7-3.9 6-11.7 9.5-17.5 3.5-5.8 10.1-15.6 14.7-21.8 4.5-6.1 12.7-15.8 18.1-21.5 5.4-5.6 12.7-12.9 16.2-16.3 3.6-3.3 9.4-8.5 13-11.6 3.6-3.1 11.7-9.3 18-13.8 6.3-4.5 15.5-10.6 20.5-13.5 4.9-2.9 13-7 18-9.2 4.9-2.2 13.3-5.4 18.5-7.1 5.2-1.8 13.3-4.1 18-5.2 4.7-1.1 10.7-2.5 13.5-3.1 2.7-0.5 10.4-1.7 17-2.6 9.2-1.2 22.6-1.6 57.5-1.8 38.2-0.2 46.8-0.5 53.5-1.9 4.4-0.9 10.9-3.1 14.4-4.9 3.5-1.8 8.2-5 10.4-7.2 2.2-2.2 5.3-6 6.9-8.5 1.5-2.5 3.8-7.4 5-11 1.8-5.6 2-8.1 1.6-17.5-0.5-8.5-1.6-15.1-5.1-29-2.5-9.9-5.1-21.8-5.8-26.5-0.7-4.9-0.9-12.5-0.6-18 0.3-5.7 1.6-13.1 3.2-18.5 1.4-5 4.4-12.6 6.5-17 2.2-4.4 7-12.1 10.8-17 3.8-5.1 11.9-13.6 18.4-19.5 6.6-5.9 16.4-13.5 22.5-17.3 5.9-3.7 16.6-9.7 23.8-13.2 7.1-3.4 19.3-8.6 27-11.4 7.7-2.8 20.4-6.9 28.2-9.1 7.9-2.2 20.9-5.3 29-7 8.2-1.6 20-3.6 26.3-4.4 6.3-0.8 18.2-2 26.5-2.6 8.2-0.6 17.5-1.2 20.5-1.4 3-0.2 13.1-0.2 22.5 0z"/></svg>