<svg version="1.2" xmlns="http://www.w3.org/2000/svg" viewBox="0 0 1632 1284" width="1632" height="1284"><defs><filter x="-50%" y="-50%" width="200%" height="200%" id="f1" ><feDropShadow dx="-10.392304845413264" dy="5.999999999999999" stdDeviation="9.583333333333334" flood-color="#066b96" flood-opacity=".2"/></filter><linearGradient id="P" gradientUnits="userSpaceOnUse"/><linearGradient id="g1" x1="2072.8" y1="-3087.4" x2="173.2" y2="-3253.6" href="#P"><stop stop-color="#09f"/><stop offset="1" stop-color="#00cbff"/></linearGradient></defs><style>.a{filter:url(#f1);fill:url(#g1)}</style><path class="a" d="m767.7 18.7c14.2 0.2 35.7 1 47.8 1.8 12.1 0.9 24.9 1.8 28.5 2.1 3.6 0.3 11.7 1.1 18 2 6.3 0.8 13.5 1.7 16 2 2.5 0.3 10.3 1.4 17.5 2.5 7.1 1.1 19.1 3.1 26.5 4.5 7.4 1.4 18 3.4 23.5 4.6 5.5 1.1 11.8 2.4 14 2.8 2.2 0.5 15.7 3.8 30 7.5 14.3 3.6 36.6 9.7 49.5 13.6 12.9 3.9 31.6 10 41.5 13.4 9.9 3.5 23.4 8.3 30 10.8 6.6 2.5 20.3 7.9 30.5 12 10.2 4.1 21.2 8.7 24.5 10.2 3.3 1.5 7.3 3.3 9 4 1.6 0.7 10 4.5 18.5 8.5 8.5 3.9 24 11.5 34.5 16.9 10.4 5.4 25.3 13.3 33 17.6 7.7 4.3 18.9 10.9 25 14.5 6 3.7 13.8 8.5 17.2 10.6 3.4 2.2 9 5.7 12.5 7.9 3.5 2.1 11.5 7.5 17.8 11.9 6.3 4.3 17.6 12.4 25 17.9 7.4 5.5 17.5 13.2 22.5 17 4.9 3.9 13.5 10.9 19 15.6 5.5 4.7 16.3 14.2 24 21.2 7.7 6.9 21.2 20 30 29.1 8.8 9 21.2 22.5 27.6 29.9 6.4 7.4 15.1 17.9 19.4 23.4 4.3 5.5 12.3 16.3 17.7 24 5.5 7.7 14.2 20.7 19.3 29 5 8.2 12.4 20.8 16.3 28 3.9 7.1 9.3 17.7 12.1 23.5 2.7 5.8 7.8 17.5 11.3 26 3.6 8.5 9.1 23.1 12.2 32.5 3.2 9.3 7.4 22.8 9.3 30 1.9 7.1 4.6 17.7 5.9 23.5 1.3 5.8 3.5 17 4.8 25 1.3 8 3 18.5 3.6 23.5 0.6 4.9 1.3 10.3 1.5 12 0.2 1.6 0.9 8.8 1.4 16 0.6 7.1 1.2 20.4 1.5 29.5 0.3 9.1 0.1 27.1-0.4 40-0.6 12.9-1.7 29.3-2.5 36.5-0.8 7.1-2.2 17.7-3.1 23.5-0.9 5.8-2.2 14.3-3 19-0.8 4.7-1.9 10.5-2.4 13-0.6 2.5-2.4 10.3-4.1 17.5-1.6 7.1-5.3 20.9-8 30.5-2.8 9.6-7.7 24.7-10.9 33.5-3.2 8.8-8.3 21.6-11.3 28.5-3 6.9-8.9 19.5-13 28-4.2 8.5-12.3 23.4-18 33-5.7 9.6-13 21.3-16.2 26-3.2 4.7-10.2 14.3-15.6 21.5-5.3 7.1-14.5 18.6-20.4 25.5-5.9 6.9-17 18.9-24.8 26.8-7.8 7.9-20.5 19.8-28.2 26.5-7.7 6.7-16 13.8-18.5 15.8-2.5 2-8.3 6.5-13 10-4.7 3.5-14.4 10.3-21.5 15-7.2 4.7-15.5 10.2-18.5 12.1-3 1.9-10 6-15.5 9.1-5.5 3-16.8 8.9-25 13-8.3 4.1-17.6 8.6-20.8 10.1-3.1 1.4-5.9 2.6-6.2 2.6-0.3 0-2.9 1.1-5.8 2.4-2.8 1.3-8.1 3.5-11.7 4.9-3.6 1.4-9.4 3.7-13 5.1-3.6 1.4-9.2 3.5-12.5 4.6-3.3 1.2-9.4 3.2-13.5 4.5-4.1 1.3-8.9 2.8-10.5 3.4-1.7 0.6-7.1 2.3-12 3.7-5 1.4-13.5 3.6-19 5-5.5 1.4-14.5 3.6-20 4.9-5.5 1.3-13.4 3.1-17.5 3.9-4.1 0.8-13.8 2.6-21.5 4-7.7 1.4-20.1 3.4-27.5 4.5-7.4 1.1-18.9 2.7-25.5 3.5-6.6 0.8-15.6 1.8-20 2.1-4.4 0.3-14.5 1-22.5 1.5-8 0.6-26.9 1.1-42 1.1-15.1 0-34.7-0.5-43.5-1.1-8.8-0.6-24.6-1.7-35-2.5-10.5-0.8-24.4-2.2-31-3-6.6-0.9-16.5-2.3-22-3.1-5.5-0.9-17.9-3.2-27.5-5.1-9.6-1.9-18.2-3.6-19-3.8-0.8-0.1-6.5-1.5-12.5-3-6.1-1.5-17.1-4.4-24.5-6.6-7.4-2.1-19.4-5.8-26.5-8.3-7.2-2.4-15.7-5.4-19-6.6-3.3-1.2-10.7-4.3-16.5-6.7-5.8-2.5-14.6-6.5-19.5-8.8-5-2.4-14.4-7.3-21-11-6.6-3.7-15.8-9.3-20.5-12.5-4.7-3.1-12.1-8.6-16.5-12-4.4-3.5-12.2-10.4-17.4-15.4-5.1-5-11.9-12.3-15-16.1-3.1-3.9-7.5-9.7-9.8-13-2.2-3.3-5.8-9.6-8-14-2.3-4.4-5.2-11.6-6.6-16-1.4-4.4-3.3-11.8-4.2-16.5-1.4-6.6-1.6-11.7-1.3-23 0.4-9.6 1.2-17.6 2.6-23.5 1.2-5 5-18.5 8.5-30 3.6-11.6 7.3-24.2 8.3-28 1.3-5 1.8-10.5 1.8-19.5 0-10.4-0.4-13.6-2.3-19-1.2-3.6-4.2-9.7-6.6-13.5-2.3-3.9-7.2-9.7-10.7-13-3.6-3.3-9.1-7.4-12.4-9.2-3.2-1.8-8.6-4.1-11.9-5.3-3.3-1.1-8.7-2.7-12-3.5-3.3-0.8-9.4-1.9-13.5-2.6-4.5-0.6-34.6-1.4-75.5-1.9-58.5-0.7-70.7-1.1-87.5-2.9-10.7-1.2-20.6-2.4-22-2.7-1.4-0.3-7.7-1.4-14-2.5-6.3-1.1-17.1-3.4-24-5.1-6.9-1.7-18.4-4.9-25.5-7.3-7.2-2.3-19.3-6.8-27-9.9-7.7-3.2-19-8.3-25-11.5-6.1-3.2-16-8.9-22-12.6-6.1-3.7-14.4-9.1-18.5-11.9-4.1-2.8-12-8.4-17.5-12.5-5.5-4.1-14.7-11.3-20.5-16-5.8-4.7-19.1-17.1-29.6-27.6-10.5-10.4-23.2-24.2-28.2-30.5-5-6.3-10-12.6-11-14-1.1-1.4-5.1-7.2-9-13-3.8-5.8-9.4-15-12.4-20.5-3-5.5-7.8-15.2-10.6-21.5-2.8-6.3-7.4-18.5-10.2-27-2.8-8.5-5.8-18.4-6.6-22-0.8-3.6-2.1-10.6-3-15.5-0.8-5-1.8-12.2-2.2-16-0.4-3.9-0.7-16-0.7-27 0-11 0.3-23.6 0.7-28 0.4-4.4 1.2-11.2 1.8-15 0.6-3.9 1.7-10.2 2.5-14 0.8-3.9 2.8-12.4 4.5-19 1.7-6.6 5.6-19.4 8.7-28.5 3.1-9.1 7.1-20.1 9-24.5 1.9-4.4 5.1-11.6 7-16 2-4.4 8-16.9 13.4-27.8 5.5-10.8 13.6-25.9 18.1-33.5 4.4-7.5 12.2-19.8 17.2-27.2 5-7.4 13.3-19.1 18.5-26 5.2-6.9 12.4-16.1 16-20.5 3.5-4.4 9.4-11.4 13-15.5 3.6-4.1 12.7-13.7 20.1-21.4 7.4-7.6 19.3-19.1 26.5-25.5 7.1-6.4 17.5-15.1 23-19.3 5.5-4.2 12.1-9.3 14.7-11.3 2.7-1.9 10.3-7.2 17-11.8 6.8-4.5 15.2-10 18.8-12.3 3.6-2.2 12.1-7.4 19-11.4 6.9-4.1 16.1-9.4 20.5-11.7 4.4-2.4 16.1-8.4 26-13.2 9.9-4.9 22.5-10.9 28-13.4 5.5-2.5 12.9-5.7 16.5-7.2 3.6-1.5 9.2-3.8 12.5-5.2 3.3-1.3 8.2-3.3 11-4.3 2.7-1 8.6-3.3 13-5 4.4-1.7 15.9-5.8 25.5-9.1 9.6-3.3 21.3-7.1 26-8.5 4.7-1.5 13.9-4.1 20.5-6 6.6-1.9 15.6-4.4 20-5.5 4.4-1.1 15.2-3.8 24-5.9 8.8-2.2 25.9-5.7 38-7.9 12.1-2.2 27.8-4.9 35-6 7.1-1.1 22.9-3.2 35-4.6 12.1-1.5 28.3-3.1 36-3.6 7.7-0.5 22.1-1.2 32-1.5 9.9-0.4 18.1-0.7 18.2-0.8 0.1-0.1 11.8 0 26 0.1z"/></svg>