<svg version="1.2" xmlns="http://www.w3.org/2000/svg" viewBox="0 0 1477 1216" width="1477" height="1216"><defs><filter x="-50%" y="-50%" width="200%" height="200%" id="f1" ><feDropShadow dx="-10.392304845413264" dy="5.999999999999999" stdDeviation="9.583333333333334" flood-color="#066b96" flood-opacity=".2"/></filter><linearGradient id="P" gradientUnits="userSpaceOnUse"/><linearGradient id="g1" x1="1873.1" y1="-2921.7" x2="159.3" y2="-3071.6" href="#P"><stop stop-color="#09f"/><stop offset="1" stop-color="#00cbff"/></linearGradient></defs><style>.a{filter:url(#f1);fill:url(#g1)}</style><path class="a" d="m650.5 18.6c7.1 0.1 20.2 0.5 29 0.8 8.8 0.4 23.9 1.4 33.5 2.2 9.6 0.8 24.7 2.4 33.5 3.4 8.8 1.1 22.1 2.9 29.5 4.1 7.4 1.1 20.2 3.4 28.5 5.1 8.2 1.7 21.5 4.5 29.5 6.3 8 1.8 19.7 4.7 26 6.3 6.3 1.6 16.9 4.6 23.5 6.6 6.6 1.9 21.2 6.7 32.5 10.5 11.3 3.8 27.5 9.7 36 13 8.5 3.3 20.9 8.2 27.5 10.9 6.6 2.7 17.6 7.5 24.5 10.6 6.9 3.2 22.4 10.6 34.5 16.6 12.1 5.9 28.5 14.4 36.5 18.8 8 4.3 17.4 9.6 21 11.7 3.6 2.1 12.1 7.2 19 11.3 6.9 4.1 18.8 11.6 26.5 16.6 7.7 4.9 20.7 13.7 29 19.5 8.2 5.8 20.4 14.5 27 19.5 6.6 5 17.6 13.5 24.5 19 6.9 5.5 19.5 16.2 28 23.7 8.5 7.5 22.2 20.1 30.4 28 8.2 7.9 21.3 21.4 29.1 29.9 7.8 8.5 19.1 21.3 25.1 28.5 5.9 7.1 14.6 18.2 19.4 24.5 4.7 6.3 12.4 17.1 17.2 24 4.7 6.9 12.8 19.5 18 28 5.1 8.5 13.5 23.6 18.5 33.5 5 9.9 11.8 24.3 15 32 3.3 7.7 7.8 18.9 10.1 25 2.3 6 5.9 16.8 8.1 24 2.2 7.1 5.6 19.1 7.5 26.5 1.9 7.4 4.4 18.2 5.5 24 1.1 5.8 2.9 16.8 4 24.5 1.1 7.7 2.6 19.8 3.2 27 0.7 7.1 1.3 25.4 1.3 40.5 0 15.1-0.6 33.3-1.3 40.5-0.6 7.1-1.8 18.2-2.7 24.5-0.8 6.3-2.1 16.2-3 22-0.8 5.8-2.6 15.7-4 22-1.4 6.3-4.6 18.7-7 27.5-2.4 8.8-5.2 19.1-6.4 23-1.1 3.8-3.4 11-5.1 16-1.8 4.9-5.9 15.7-9.1 24-3.3 8.2-10.7 24.4-16.3 36-5.7 11.5-14.7 28.3-20.2 37.3-5.4 8.9-13.4 21.3-17.8 27.5-4.3 6.1-12.2 16.6-17.4 23.2-5.2 6.6-14.7 17.8-21.1 25-6.4 7.1-17 18-23.6 24.1-6.5 6.2-15.5 14.3-20 18-4.4 3.8-12.5 10.4-18 14.7-5.4 4.3-17.9 13.1-27.6 19.5-9.8 6.4-22.2 14.3-27.5 17.4-5.4 3.1-17.2 9.3-26.3 13.6-9.1 4.4-23.9 10.9-33 14.4-9.1 3.6-19.9 7.7-24 9.1-4.1 1.5-12.7 4.2-19 6.1-6.3 1.9-17.8 5.1-25.5 7-7.7 1.9-18.3 4.4-23.5 5.5-5.2 1.1-13.8 2.7-19 3.6-5.2 0.9-12 2-15 2.6-3 0.5-9.6 1.4-14.5 2-5 0.5-17.1 1.7-27 2.5-9.9 0.8-34 1.8-53.5 2.1-22.2 0.3-42.4 0.1-54-0.6-10.2-0.6-20.7-1.4-23.5-1.6-2.8-0.3-8.8-1-13.5-1.6-4.7-0.5-12.1-1.4-16.5-2-4.4-0.6-17.7-2.9-29.5-5.1-11.8-2.2-31.4-6.3-43.5-9-12.1-2.7-25.8-6-30.5-7.4-4.7-1.4-17.1-5.3-27.5-8.6-10.5-3.3-27.6-9.4-38-13.5-10.5-4.1-29.8-12.8-43-19.4-13.2-6.5-30.3-15.8-38-20.6-7.7-4.9-18.5-12.2-24-16.3-5.5-4.1-13.8-10.7-18.5-14.6-4.7-3.9-12.7-11.6-17.9-17-5.1-5.4-12.7-14.4-16.8-19.9-4.1-5.5-9.8-14.7-12.7-20.5-3-5.8-6.7-14.8-8.4-20-1.7-5.2-3.6-12.4-4.2-16-0.6-3.6-1.1-10.8-1.1-16 0-5.2 0.5-12.7 1.1-16.5 0.6-3.9 2.9-12.4 5.1-19 2.2-6.6 7.6-19.4 11.9-28.5 4.2-9.1 8.9-19.2 10.3-22.5 1.4-3.3 3.2-8.5 4-11.5 0.9-3 1.9-8.9 2.2-13q0.7-7.5-0.8-14.5c-0.8-3.9-2.8-9.9-4.5-13.5-1.7-3.6-5.2-9.1-7.7-12.3-2.5-3.1-6.6-7.3-9.3-9.2-2.6-1.9-7.9-5-11.7-6.9-3.9-1.9-9.5-4.4-12.5-5.5-3-1.1-8.2-2.7-11.5-3.5-3.3-0.8-9.4-2.2-13.5-3-4.1-0.8-10.4-1.9-14-2.5-3.6-0.6-11.7-1.8-18-2.6-6.3-0.9-14.7-2-18.5-2.5-3.9-0.5-11.1-1.4-16-2-5-0.7-15.5-2.3-23.5-3.6-8-1.4-18.1-3.2-22.5-4-4.4-0.9-14.1-3.1-21.5-4.9-7.4-1.9-21.2-5.9-30.5-9.1-9.4-3.1-20.7-7.1-25.3-9-4.5-1.9-13.5-6.1-20-9.3-6.4-3.2-15.8-8.2-20.7-11.1-5-2.8-12.6-7.7-17-10.8-4.4-3.1-12.7-9.4-18.5-14-5.8-4.6-16.5-13.9-23.8-20.5-7.4-6.7-17.5-16.7-22.6-22.2-5-5.5-11.9-13.2-15.2-17-3.2-3.9-9.3-11.5-13.5-17-4.2-5.5-10.1-13.8-13.1-18.5-3.1-4.7-7.4-11.7-9.8-15.5-2.3-3.9-7.2-13.3-11-21-3.7-7.7-8.4-18.3-10.3-23.5-1.9-5.2-5-14.5-6.7-20.5-1.8-6.1-4.3-16.4-5.5-23-1.3-6.6-2.9-17.9-3.5-25-0.8-7.6-1-18.8-0.7-27 0.4-7.7 1.3-18.7 2.1-24.5 0.8-5.8 2.4-14.6 3.6-19.5 1.1-5 3.2-13.3 4.7-18.5 1.4-5.2 4.3-14 6.4-19.5 2.1-5.5 5.2-13.4 6.9-17.5 1.7-4.1 6.5-14 10.6-22 4.2-8 10.1-18.7 13.2-23.8 3.1-5.1 10.8-16.8 17.1-26 6.3-9.2 14.3-20.5 17.9-25.2 3.6-4.7 10.8-13.7 16.1-20 5.3-6.3 18.8-20.7 30.1-32 11.3-11.3 26.3-25.5 33.4-31.6 7-6 17.8-14.7 24-19.3 6.1-4.6 14.9-10.9 19.6-14.1 4.7-3.1 12.8-8.3 18-11.5 5.2-3.2 16.7-9.5 25.5-14.1 8.8-4.6 22.1-11.1 29.5-14.4 7.4-3.4 19.6-8.5 27-11.5 7.4-2.9 20.2-7.7 28.5-10.5 8.2-2.9 19-6.5 24-8.1 4.9-1.6 12.4-3.9 16.5-5 4.1-1.2 10-2.8 13-3.6 3-0.8 11.8-3 19.5-4.9 7.7-1.9 15.8-3.9 18-4.4 2.2-0.5 10.7-2.3 19-3.9 8.2-1.7 20.8-3.9 28-5 7.1-1.1 15.7-2.5 19-3.1 3.3-0.5 12.1-1.6 19.5-2.4 7.4-0.8 18.2-1.9 24-2.5 5.8-0.6 20.2-1.5 32-2.1 11.8-0.6 24.9-1.2 29-1.3 4.1-0.1 13.3-0.1 20.5-0.1z"/></svg>