<svg version="1.2" xmlns="http://www.w3.org/2000/svg" viewBox="0 0 566 659" width="566" height="659"><defs><filter x="-50%" y="-50%" width="200%" height="200%" id="f1" ><feDropShadow dx="0" dy="0" stdDeviation="9.583333333333334" flood-color="#066b96" flood-opacity=".2"/></filter><linearGradient id="P" gradientUnits="userSpaceOnUse"/><linearGradient id="g1" x1="689.9" y1="-1517.7" x2="69.4" y2="-1582.9" href="#P"><stop stop-color="#09f"/><stop offset="1" stop-color="#00cbff"/></linearGradient></defs><style>.a{filter:url(#f1);fill:url(#g1)}</style><path class="a" d="m282.5 24.6c8.8 0.2 19.8 1.1 24.5 1.8 4.7 0.8 12.5 2.4 17.5 3.6 4.9 1.3 13.7 4.1 19.5 6.4 5.8 2.2 14.1 6.2 18.5 8.9 4.4 2.7 11.1 7.4 14.9 10.6 3.8 3.1 10.5 9.4 14.9 14.1 4.4 4.7 10 11.6 12.5 15.5 2.5 3.8 6.6 11.9 9.2 18 2.6 6 5.6 13.9 6.8 17.5 1.2 3.6 3.1 10.3 4.2 15 1.2 4.7 3.4 15.5 5 24 1.5 8.5 3.1 17.5 3.4 20 0.4 2.5 1.1 8.8 1.6 14 0.6 5.5 0.8 23.6 0.6 42.5-0.4 24.9-0.2 35.1 0.8 41.5 0.8 4.7 2.5 13.2 3.9 19 1.4 5.8 4.1 14.5 6 19.5 1.9 4.9 5.2 12.6 7.4 17 2.2 4.4 6.6 12.3 9.8 17.5 3.2 5.2 7.8 12.4 10.4 16 2.5 3.6 10.4 14.1 17.6 23.3 7.1 9.3 15.2 19.6 17.8 23 2.7 3.4 6.7 8.9 8.9 12.2 2.2 3.3 5.7 8.7 7.8 12 2 3.3 5.3 9.6 7.2 14 2 4.4 4.5 12 5.8 17 1.5 6.3 2.2 12 2.2 19 0 5.5-0.7 13.1-1.5 17-0.9 3.8-2.8 10.4-4.2 14.5-1.4 4.1-4.6 11.1-7.2 15.5-2.5 4.4-6.4 10.5-8.7 13.5-2.2 3-8.1 9.7-13.1 14.9-4.9 5.1-12.8 12.4-17.5 16.1-4.7 3.7-13.7 10.3-20 14.5-6.3 4.2-17.1 10.5-24 14-6.9 3.4-16.4 7.9-21.3 9.9-4.8 2-14 5.2-20.5 7.2-6.4 1.9-15.8 4.4-20.7 5.4-5 1-13.3 2.3-18.5 3-5.2 0.6-16.5 1.1-25 1.1-8.5 0-20-0.5-25.5-1-5.5-0.6-12.5-1.6-15.5-2.2-3-0.6-10-2.1-15.5-3.4-5.5-1.3-14.7-4-20.5-5.8-5.8-1.9-14.1-4.8-18.5-6.5-4.4-1.6-13-5.3-19-8-6.1-2.8-15.3-7.4-20.5-10.3-5.2-2.8-14.5-8.6-20.5-12.7-6.1-4.1-14.4-10.2-18.5-13.6-4.1-3.4-11.7-10.2-16.9-15.1-5.1-5-13.5-13.7-18.6-19.5-5-5.8-13.4-15.9-18.6-22.5-5.2-6.6-12.4-16.1-16-21-3.5-5-9.6-14-13.5-20-3.9-6.1-10.1-16.6-13.8-23.5-3.8-6.9-9.2-17.5-12.1-23.5-2.9-6.1-7.4-16.2-9.9-22.5-2.4-6.3-6.1-16.5-8-22.5-2-6.1-4.7-15.7-6-21.5-1.4-5.8-3.2-14.3-4-19-0.8-4.7-2-13.7-2.7-20-0.7-7.3-1-18.8-0.6-31.5q0.6-20 2.7-32c1.1-6.6 2.9-15.5 4-19.8 1.1-4.2 3.6-12.5 5.6-18.5 2-5.9 5.6-15.2 8.1-20.7 2.4-5.5 7-14.7 10.2-20.5 3.3-5.8 8.3-14.1 11.2-18.5 2.9-4.4 8-11.6 11.3-16 3.4-4.4 10.6-13.2 16.2-19.5 5.6-6.3 17-18.3 25.5-26.5 8.5-8.3 19.4-18.4 24.4-22.5 4.9-4.1 12.6-10 17-13.1 4.4-3.1 12.3-8.1 17.5-11 5.2-3 13.3-7.1 18-9.1 4.7-2 12.5-5 17.5-6.7 4.9-1.6 14.6-4.1 21.5-5.5 6.9-1.4 16.8-3 22-3.5 5.2-0.5 16.7-0.8 25.5-0.5z"/></svg>