<svg version="1.2" xmlns="http://www.w3.org/2000/svg" viewBox="0 0 860 767" width="860" height="767"><defs><filter x="-50%" y="-50%" width="200%" height="200%" id="f1" ><feDropShadow dx="0" dy="0" stdDeviation="9.583333333333334" flood-color="#066b96" flood-opacity=".2"/></filter><linearGradient id="P" gradientUnits="userSpaceOnUse"/><linearGradient id="g1" x1="1069.3" y1="-1780.7" x2="95.2" y2="-1883.1" href="#P"><stop stop-color="#09f"/><stop offset="1" stop-color="#00cbff"/></linearGradient></defs><style>.a{filter:url(#f1);fill:url(#g1)}</style><path class="a" d="m529.7 24.1c0.7 0 1.3 0.2 1.3 0.6 0 0.5 6 1.2 13.2 1.6 7.3 0.4 16.4 1.2 20.3 1.8 3.8 0.6 8.6 1.4 10.5 1.9 1.9 0.5 6.2 1.2 9.5 1.5 3.3 0.3 8.2 1.2 11 2.1 2.7 0.8 6.3 1.4 8 1.4 1.6 0 5.7 0.9 9 2.1 3.3 1.1 8.5 2.6 11.5 3.4 3 0.7 10.4 3.1 16.5 5.3 6 2.2 13 4.8 15.5 5.7 2.5 0.9 8.3 3.5 13 5.7 4.7 2.2 9.2 4.6 10 5.3 0.8 0.7 2.6 1.6 4 2 1.4 0.5 4.7 2.2 7.5 3.9 2.7 1.8 5.7 3.6 6.6 4.1 0.9 0.6 4.8 3.1 8.5 5.7 3.8 2.6 8.7 6.1 10.9 7.7 2.2 1.7 5.1 3.8 6.5 4.8 1.4 0.9 5.9 4.9 10 8.8 4.1 3.8 10.9 10.4 15 14.5 4.2 4.1 11 11.8 15.3 17 4.2 5.2 9.1 11.3 10.8 13.5 1.7 2.2 5.4 7.7 8.2 12.2 2.9 4.5 6.4 10.1 7.8 12.5 1.4 2.4 4.9 8.6 7.6 13.8 2.8 5.2 5.4 10.6 5.8 12 0.4 1.4 2.5 6.1 4.5 10.5 2.1 4.4 6.3 15.9 9.4 25.5 3 9.6 6.4 20.9 7.5 25 1.1 4.1 2.9 12 3.9 17.5 1.1 5.5 2.7 15.2 3.5 21.5 0.9 6.3 2.1 18.2 2.8 26.5 0.8 9.8 1 22.3 0.5 36-0.3 11.5-1.3 26.4-2 33-0.8 6.6-1.7 12.7-2 13.5-0.3 0.8-1 4.4-1.6 8-0.6 3.6-1.4 8.5-1.9 11-0.5 2.5-2.2 9.7-3.9 16-1.6 6.3-4.8 16.7-7 23-2.2 6.3-5.4 14.6-7 18.5-1.6 3.8-5 11.3-7.5 16.5-2.5 5.2-7.3 14.4-10.7 20.5-3.4 6-9.6 15.9-13.7 22-4.1 6-8.6 12.6-9.9 14.5-1.4 1.9-6 7.8-10.2 13-4.2 5.2-10.6 12.6-14.1 16.5-3.5 3.8-11.7 12.2-18.2 18.5-6.5 6.3-15.1 14.4-19.2 18-4.1 3.6-10.8 9.1-14.8 12.3-4.1 3.2-10.3 7.9-13.8 10.5-3.6 2.6-10.8 7.7-16 11.4-5.3 3.7-12.5 8.4-16.1 10.4-3.6 2.1-8.5 5.1-11 6.8-2.5 1.6-6.8 4-9.5 5.3-2.8 1.2-10.2 5.2-16.5 8.8-6.3 3.6-12 6.5-12.5 6.5-0.6 0-7.1 3-14.5 6.5-7.4 3.6-19.8 8.8-27.5 11.6-7.7 2.8-21.2 7.5-30 10.4-8.8 3-19.6 6.4-24 7.6-4.4 1.2-13 3.2-19 4.6-6.1 1.3-16 3.2-22 4.3-6.1 1.1-15.7 2.4-21.5 3-5.8 0.6-19.5 1.5-30.5 2.1-14.1 0.7-25.3 0.7-38-0.1-9.9-0.6-25-2-33.5-3.1-8.5-1.1-17.5-2.4-20-2.9-2.5-0.6-7.4-1.5-11-2.1-3.6-0.5-9.9-1.9-14-3-4.1-1.1-12-3.4-17.5-5-5.5-1.6-13.2-3.9-17-5.1-3.9-1.2-12.6-4.4-19.5-7-6.9-2.7-13.5-5.6-14.8-6.4-1.2-0.8-2.8-1.4-3.5-1.4-0.6 0-4.1-1.4-7.7-3-3.6-1.7-7.4-3.6-8.5-4.2-1.1-0.6-5.4-2.9-9.5-5-4.1-2.2-9.8-5.2-12.5-6.7-2.8-1.6-7.3-4.3-10-6-2.8-1.7-6.3-3.9-7.9-4.9-1.6-0.9-5-3.4-7.7-5.5-2.7-2-5.2-3.7-5.7-3.7-0.4 0.1-4.8-3.2-9.7-7.2-5-3.9-13.5-11.2-19-16.1-5.5-4.9-10.3-9.4-10.6-10.1-0.4-0.6-3.7-4.3-7.3-8.1-3.6-3.9-6.6-7.2-6.6-7.5 0.1-0.3-2.3-3.5-5.2-7.2-2.9-3.7-6.6-8.4-8.1-10.5-1.5-2.1-3.9-5.4-5.2-7.3-1.3-1.9-4.6-7-7.2-11.3-2.6-4.2-6.9-11.4-9.5-16-2.6-4.5-5.3-9.3-5.9-10.7-0.7-1.4-3.6-7.7-6.5-14-3-6.3-5.4-12-5.4-12.5 0-0.6-2.1-6.4-4.6-13-2.5-6.6-5.7-16.3-7-21.5-1.4-5.2-3.4-14.5-4.4-20.5-1.1-6.1-2.3-17.5-2.6-25.5-0.5-9.5-0.3-17.5 0.5-23 0.7-4.7 1.9-11.4 2.7-15 0.8-3.6 1.4-7.5 1.4-8.8 0-1.2 0.5-3.2 1.1-4.5 0.7-1.2 1.8-4.2 2.4-6.7 0.7-2.5 2-6.5 2.9-9 0.9-2.5 4.1-9.5 7.1-15.5 3-6.1 8.4-15.5 12-21 3.6-5.5 10.7-14.7 15.7-20.5 5.1-5.8 12.2-13.4 15.9-17 3.6-3.6 9.3-8.8 12.5-11.5 3.2-2.8 9.4-7.6 13.6-10.8 4.3-3.1 11.1-7.7 15-10.1 4-2.4 10.4-5.9 14.3-7.9 3.8-1.9 10.8-4.7 15.5-6.1 4.7-1.5 12.8-3.9 18-5.3 5.2-1.3 16-3.4 24-4.6 11.4-1.6 20.3-2.1 41-2.2 14.6-0.1 30.8-0.8 36-1.5 5.2-0.7 13.1-2.5 17.5-4.1 5-1.8 9.3-4.1 11.4-6.1 1.9-1.8 4.5-5.1 5.9-7.3 1.4-2.2 3.3-6.7 4.4-10 1-3.3 1.8-8.7 1.8-12 0-3.6-1.5-11.7-3.6-20-2-7.7-4.2-16.5-4.9-19.5-0.8-3-1.9-9.8-2.6-15-0.9-7.4-0.9-11 0-16.5 0.7-3.9 2.5-10.2 3.9-14 1.5-3.9 3.9-9.3 5.5-12 1.6-2.8 4.9-7.7 7.2-11 2.4-3.3 7.6-9.2 11.7-13 4.1-3.9 10.5-9.4 14.3-12.3 3.9-2.9 11.5-8 17-11.3 5.7-3.3 17.6-8.9 27.5-12.8 9.6-3.8 21.1-8 25.5-9.5 4.4-1.4 11.4-3.4 15.5-4.5 4.1-1 12.4-2.8 18.5-4 6-1.1 14.4-2.5 18.5-3 4.1-0.6 16.3-1.5 27-2.1 10.7-0.7 22-1.5 25-2 3-0.4 6.1-0.8 6.7-0.9z"/></svg>